<svg xmlns="http://www.w3.org/2000/svg" width="60.667" height="44.965" viewBox="0 0 60.667 44.965"><defs><style>.a{fill:none;stroke:#02fdc3;stroke-linecap:square;stroke-linejoin:round;}</style></defs><g transform="translate(-100.5 -23.034)"><g transform="translate(101 23.534)"><path class="a" d="M1422.632-221.644h14.524l15.309,29.441Z" transform="translate(-1422.632 236.168)"/><path class="a" d="M1491.92-221.644H1477.4L1462.086-192.2Z" transform="translate(-1432.253 236.168)"/><path class="a" d="M1441.84-221.644h30.619L1457.15-192.2Z" transform="translate(-1427.316 236.168)"/><path class="a" d="M1437.156-240.852l-14.524,14.524h14.524l7.458-7.458Z" transform="translate(-1422.632 240.852)"/><path class="a" d="M1479.022-240.852l15.1,14.524h-15.1l-7.892-7.2Z" transform="translate(-1434.458 240.852)"/><path class="a" d="M1441.84-240.852l7.458,7.066,7.017-7.017Z" transform="translate(-1427.316 240.852)"/><path class="a" d="M1461.559-240.852l7.238,7.325,7.59-7.276Z" transform="translate(-1432.125 240.852)"/><path class="a" d="M1456.757-223.95l-7.686-7.281L1441.84-224Z" transform="translate(-1427.316 238.506)"/><path class="a" d="M1476.484-223.95l-7.686-7.281L1461.567-224Z" transform="translate(-1432.126 238.506)"/><path class="a" d="M1459.089-226.3l-7.686-7.231,7.244-7.276.435-.049,7.237,7.325Z" transform="translate(-1429.648 240.852)"/></g></g></svg>