<svg xmlns="http://www.w3.org/2000/svg" width="179.877" height="40.466" viewBox="0 0 179.877 40.466"><defs><style>.a{fill:#fff;}.b{fill:none;stroke:#02fdc3;stroke-linecap:square;stroke-linejoin:round;}</style></defs><g transform="translate(-136.184 -9119.034)"><path class="a" d="M9.248-17.472a13.234,13.234,0,0,0-7.424,2.08L3.616-11.9a8.278,8.278,0,0,1,4.96-1.6c2.688,0,3.968,1.248,3.968,3.392H8.576C3.328-10.112,1.184-8,1.184-4.96c0,2.976,2.4,5.216,6.432,5.216,2.528,0,4.32-.832,5.248-2.4V0h4.672V-9.824C17.536-15.04,14.5-17.472,9.248-17.472ZM8.864-3.1c-1.76,0-2.816-.832-2.816-2.08,0-1.152.736-2.016,3.072-2.016h3.424v1.76A3.678,3.678,0,0,1,8.864-3.1ZM22.048,0H27.04V-23.744H22.048ZM31.68,0h4.992V-23.744H31.68ZM49.632.256c3.616,0,6.464-1.6,7.712-4.352L53.472-6.208A4.235,4.235,0,0,1,49.6-3.84a4.405,4.405,0,0,1-4.512-4.768A4.405,4.405,0,0,1,49.6-13.376a4.293,4.293,0,0,1,3.872,2.368l3.872-2.08c-1.248-2.816-4.1-4.384-7.712-4.384-5.6,0-9.6,3.68-9.6,8.864S44.032.256,49.632.256ZM70.56-17.472a7.567,7.567,0,0,0-5.472,2.048v-8.32H60.1V0h4.992V-8.512c0-3.168,1.728-4.64,4.128-4.64,2.208,0,3.488,1.28,3.488,4.064V0H77.7V-9.856C77.7-15.1,74.624-17.472,70.56-17.472Zm18.592,0a13.234,13.234,0,0,0-7.424,2.08L83.52-11.9a8.278,8.278,0,0,1,4.96-1.6c2.688,0,3.968,1.248,3.968,3.392H88.48c-5.248,0-7.392,2.112-7.392,5.152,0,2.976,2.4,5.216,6.432,5.216,2.528,0,4.32-.832,5.248-2.4V0H97.44V-9.824C97.44-15.04,94.4-17.472,89.152-17.472ZM88.768-3.1c-1.76,0-2.816-.832-2.816-2.08,0-1.152.736-2.016,3.072-2.016h3.424v1.76A3.678,3.678,0,0,1,88.768-3.1Zm17.952-11.84v-2.272h-4.768V0h4.992V-8.128c0-3.3,1.824-4.8,4.576-4.8.384,0,.7.032,1.12.064v-4.608C109.984-17.472,107.936-16.608,106.72-14.944Z" transform="translate(135 9151)"/><g transform="translate(262 9119.534)"><path class="b" d="M1422.632-221.644h13.038l13.742,26.428Z" transform="translate(-1422.632 234.681)"/><path class="b" d="M1488.867-221.644h-13.038l-13.743,26.428Z" transform="translate(-1435.306 234.681)"/><path class="b" d="M1441.84-221.644h27.485l-13.742,26.428Z" transform="translate(-1428.802 234.681)"/><path class="b" d="M1435.67-240.852l-13.038,13.038h13.038l6.7-6.7Z" transform="translate(-1422.632 240.852)"/><path class="b" d="M1478.215-240.852l13.557,13.038h-13.557l-7.085-6.463Z" transform="translate(-1438.211 240.852)"/><path class="b" d="M1441.84-240.852l6.695,6.343,6.3-6.3Z" transform="translate(-1428.802 240.852)"/><path class="b" d="M1461.559-240.852l6.5,6.575,6.813-6.531Z" transform="translate(-1435.137 240.852)"/><path class="b" d="M1455.23-224.7l-6.9-6.536-6.491,6.491Z" transform="translate(-1428.802 237.761)"/><path class="b" d="M1474.957-224.7l-6.9-6.536-6.491,6.491Z" transform="translate(-1435.139 237.761)"/><path class="b" d="M1458.3-227.786l-6.9-6.491,6.5-6.531.391-.044,6.5,6.575Z" transform="translate(-1431.874 240.852)"/></g></g></svg>