<svg xmlns="http://www.w3.org/2000/svg" xmlns:xlink="http://www.w3.org/1999/xlink" width="15.66" height="15.75" viewBox="0 0 15.66 15.75"><defs><style>.a,.b{fill:none;}.a{clip-rule:evenodd;}.c{clip-path:url(#a);}.d{clip-path:url(#b);}.e{fill:#fff;}</style><clipPath id="a"><path class="a" d="M169.332-16H155.994a1.143,1.143,0,0,0-.828.333,1.078,1.078,0,0,0-.342.8v13.5a1.049,1.049,0,0,0,.342.792,1.138,1.138,0,0,0,.81.324h13.356a1.138,1.138,0,0,0,.81-.324,1.049,1.049,0,0,0,.342-.792v-13.5a1.078,1.078,0,0,0-.342-.8,1.143,1.143,0,0,0-.828-.333ZM159.576-2.806h-2.358v-7.11h2.358Zm-1.188-8.082h-.018a1.284,1.284,0,0,1-.936-.351,1.181,1.181,0,0,1-.36-.882,1.166,1.166,0,0,1,.369-.882,1.34,1.34,0,0,1,.963-.351,1.308,1.308,0,0,1,.954.351,1.181,1.181,0,0,1,.36.882,1.181,1.181,0,0,1-.36.882,1.333,1.333,0,0,1-.972.351Zm9.7,8.082h-2.358V-6.622a2.1,2.1,0,0,0-.27-1.152,1.036,1.036,0,0,0-.918-.45,1.2,1.2,0,0,0-.792.27,1.439,1.439,0,0,0-.432.594,1.77,1.77,0,0,0-.072.576v3.978H160.89V-6.118q.018-3.384,0-3.8h2.358v1.008a2.781,2.781,0,0,1,.7-.774,2.5,2.5,0,0,1,1.422-.4,2.526,2.526,0,0,1,1.944.774,3.448,3.448,0,0,1,.774,2.412Z" transform="translate(0 16)"/></clipPath><clipPath id="b"><path class="b" d="M-1133.346,188.184h1440v-3843h-1440Z" transform="translate(0 16)"/></clipPath></defs><g class="c" transform="translate(-154.824)"><g class="d"><path class="e" d="M149.824-21h25.66V4.75h-25.66Z" transform="translate(0 16)"/></g></g></svg>