<svg xmlns="http://www.w3.org/2000/svg" xmlns:xlink="http://www.w3.org/1999/xlink" width="15.768" height="12.799" viewBox="0 0 15.768 12.799">
  <defs>
    <clipPath id="clip-path">
      <path id="path" d="M50.012-12.49a3.327,3.327,0,0,0,.873-.765,3.122,3.122,0,0,0,.549-1.035,6.288,6.288,0,0,1-2.052.792,3.182,3.182,0,0,0-1.062-.756,3.175,3.175,0,0,0-1.3-.27,3.114,3.114,0,0,0-1.611.441A3.266,3.266,0,0,0,44.234-12.9a3.149,3.149,0,0,0-.432,1.62,3.754,3.754,0,0,0,.072.738,9.126,9.126,0,0,1-3.726-1.008,9.218,9.218,0,0,1-2.934-2.376,3.212,3.212,0,0,0-.432,1.62,3.168,3.168,0,0,0,.387,1.539A3.263,3.263,0,0,0,38.222-9.61a3.038,3.038,0,0,1-1.476-.414v.054A3.378,3.378,0,0,0,37.1-8.539a3.209,3.209,0,0,0,.927,1.134,3.127,3.127,0,0,0,1.314.6,3.338,3.338,0,0,1-.846.108,3.217,3.217,0,0,1-.594-.054,3.119,3.119,0,0,0,1.134,1.593A3.234,3.234,0,0,0,40.9-4.5,6.711,6.711,0,0,1,39.032-3.49a6.422,6.422,0,0,1-2.142.36q-.4,0-.774-.036A8.947,8.947,0,0,0,38.456-2.1a9.217,9.217,0,0,0,2.628.378,9.4,9.4,0,0,0,3.942-.828,8.747,8.747,0,0,0,2.88-2.16A9.655,9.655,0,0,0,49.67-7.666a9.356,9.356,0,0,0,.594-3.24v-.414a6.789,6.789,0,0,0,1.62-1.692A6.568,6.568,0,0,1,50.012-12.49Z" transform="translate(0 16)" fill="none" clip-rule="evenodd"/>
    </clipPath>
    <clipPath id="clip-path-2">
      <path id="path-2" data-name="path" d="M-1133.346,188.184h1440v-3843h-1440Z" transform="translate(0 16)" fill="none"/>
    </clipPath>
  </defs>
  <g id="group" transform="translate(-36.116 -1.476)" clip-path="url(#clip-path)">
    <g id="group-2" data-name="group" clip-path="url(#clip-path-2)">
      <path id="path-3" data-name="path" d="M31.116-19.524H56.884v22.8H31.116Z" transform="translate(0 16)" fill="#fff"/>
    </g>
  </g>
</svg>
