<svg xmlns="http://www.w3.org/2000/svg" width="42.004" height="49.519" viewBox="0 0 42.004 49.519">
  <g id="award" transform="translate(-35.479)">
    <g id="Group_38" data-name="Group 38" transform="translate(35.479 0)">
      <g id="Group_37" data-name="Group 37" transform="translate(0 0)">
        <path id="Path_46" data-name="Path 46" d="M77.381,43.384,69.8,30.25a18.048,18.048,0,1,0-26.606,0L35.608,43.384a1.033,1.033,0,0,0-.085.8.876.876,0,0,0,1.144.508l6.058-2.415.932,6.482a.834.834,0,0,0,.424.636.906.906,0,0,0,1.229-.339L52.978,35.8a18.479,18.479,0,0,0,3.432.339,18.127,18.127,0,0,0,3.432-.339L67.51,49.061a.947.947,0,0,0,1.229.339.834.834,0,0,0,.424-.636l.932-6.482L76.153,44.7a.876.876,0,0,0,1.144-.508A.653.653,0,0,0,77.381,43.384ZM45.14,45.926l-.763-5.042a.938.938,0,0,0-1.017-.763.6.6,0,0,0-.254.085L38.4,42.07l6.1-10.549a17.887,17.887,0,0,0,6.736,3.771ZM56.495,34.317A16.237,16.237,0,0,1,45.013,6.609a15.928,15.928,0,0,1,11.481-4.83A16.237,16.237,0,0,1,67.976,29.487,15.928,15.928,0,0,1,56.495,34.317Zm13.388,5.889a.6.6,0,0,0-.254-.085.9.9,0,0,0-1.017.763l-.763,5.042-6.1-10.634a17.887,17.887,0,0,0,6.736-3.771l6.1,10.549Z" transform="translate(-35.479 0)" fill="#02fdc3"/>
      </g>
    </g>
    <g id="Group_40" data-name="Group 40" transform="translate(47.906 9.236)">
      <g id="Group_39" data-name="Group 39" transform="translate(0)">
        <path id="Path_47" data-name="Path 47" d="M169.7,92.877a1.814,1.814,0,0,0-.763-.635,1.9,1.9,0,0,0-.974-.169h-3.516l-1.1-3.474a2.262,2.262,0,0,0-.974-1.186,2.157,2.157,0,0,0-1.864,0,1.96,1.96,0,0,0-.974,1.186l-1.1,3.474h-3.516a1.9,1.9,0,0,0-.974.169,1.814,1.814,0,0,0-.763.635,1.9,1.9,0,0,0-.339,1.483,1.988,1.988,0,0,0,.8,1.313l2.966,2.118-1.144,3.474c0,.042,0,.085-.042.085a1.881,1.881,0,0,0-.042.847,1.705,1.705,0,0,0,.381.847,1.988,1.988,0,0,0,1.313.8,1.892,1.892,0,0,0,1.483-.381l2.966-2.161,2.966,2.161a2.127,2.127,0,0,0,1.483.381,1.988,1.988,0,0,0,1.313-.8,2.183,2.183,0,0,0,.381-.847,1.914,1.914,0,0,0-.042-.847c0-.042,0-.085-.042-.085l-1.144-3.474,2.966-2.118a1.988,1.988,0,0,0,.8-1.313A2.967,2.967,0,0,0,169.7,92.877Zm-1.483,1.356-.042.042-3.432,2.5a.886.886,0,0,0-.339.974l1.313,4.025v.169c0,.042,0,.085-.042.085a.22.22,0,0,1-.169.085.255.255,0,0,1-.169-.042l-3.474-2.542a.851.851,0,0,0-.551-.169.932.932,0,0,0-.551.169l-3.474,2.542a.255.255,0,0,1-.169.042.321.321,0,0,1-.169-.085.131.131,0,0,1-.042-.085v-.169l1.313-4.025a.809.809,0,0,0-.339-.974l-3.262-2.5-.042-.042c-.042-.042-.085-.085-.085-.127a.255.255,0,0,1,.042-.169.041.041,0,0,1,.042-.042c.042-.042.042-.042.085-.042s.085-.042.127-.042h4.279a.9.9,0,0,0,.847-.636l1.313-4.067a.135.135,0,0,1,.127-.127.148.148,0,0,0,.085-.042c.042,0,.085,0,.085.042l.127.127,1.313,4.067a.962.962,0,0,0,.847.636h4.279a.156.156,0,0,1,.127.042c.042,0,.042.042.085.042a.041.041,0,0,0,.042.042c.042.042.042.085.042.169A.585.585,0,0,0,168.216,94.233Z" transform="translate(-152.806 -87.2)" fill="#02fdc3"/>
      </g>
    </g>
    <g id="Group_42" data-name="Group 42" transform="translate(42.429 3.983)">
      <g id="Group_41" data-name="Group 41">
        <path id="Path_48" data-name="Path 48" d="M125.117,41.71a14.115,14.115,0,1,0,4.11,9.956A14.021,14.021,0,0,0,125.117,41.71Zm-1.229,18.641a12.3,12.3,0,1,1-17.413-17.37,12.161,12.161,0,0,1,8.685-3.644,12.343,12.343,0,0,1,8.728,21.014Z" transform="translate(-101.095 -37.6)" fill="#02fdc3"/>
      </g>
    </g>
  </g>
</svg>
