<svg xmlns="http://www.w3.org/2000/svg" width="52.05" height="52.871" viewBox="0 0 52.05 52.871">
  <g id="coffee-cup" transform="translate(-2.972 1)">
    <g id="Group_10" data-name="Group 10" transform="translate(2.972 -1)">
      <g id="Group_9" data-name="Group 9" transform="translate(0 0)">
        <path id="Path_28" data-name="Path 28" d="M49.735,218.731H38.621a16.576,16.576,0,0,0,6.647-4.688c6.736-1.023,9.754-6.593,9.754-11.72,0-3.64-2.027-6.678-4.65-7.21,0-.028,0-.055,0-.083a1.869,1.869,0,0,0-1.823-1.823H6.618A1.869,1.869,0,0,0,4.8,195.03c.071,9.8,1.778,19.717,11.752,23.7H5.342a2.354,2.354,0,0,0-2.37,2.37,2.238,2.238,0,0,0,2.005,2.188l11.577.82a.685.685,0,0,1,.638.456,2.628,2.628,0,0,0,2.37,1.458H34.694a2.4,2.4,0,0,0,2.279-1.458.686.686,0,0,1,.638-.456l12.4-.82H50.1a2.238,2.238,0,0,0,2.005-2.188A2.354,2.354,0,0,0,49.735,218.731Zm.638-21.7c1.55.547,2.735,2.735,2.735,5.287,0,3.552-1.638,7.833-6.188,9.385q.114-.194.224-.391C49.676,206.925,50.2,201.637,50.373,197.036ZM6.618,195.03H48.55c-.091,12.306-2.735,23.7-20.966,23.7S6.71,207.336,6.618,195.03Zm43.3,26.435-12.215.82a2.842,2.842,0,0,0-2.188,1.458.93.93,0,0,1-.729.456H19.563a.93.93,0,0,1-.729-.456,2.842,2.842,0,0,0-2.188-1.458l-11.395-.82c-.456-.091-.456-.273-.456-.365a.588.588,0,0,1,.547-.547H49.826a.588.588,0,0,1,.547.547C50.373,221.192,50.373,221.374,49.918,221.465Z" transform="translate(-2.972 -173.153)" fill="#02fdc3"/>
        <path id="Path_29" data-name="Path 29" d="M216.932,6.567a6,6,0,0,0-2.1,4.193,6.545,6.545,0,0,0,2.1,4.375.881.881,0,0,0,1.276,0,.881.881,0,0,0,0-1.276,4.778,4.778,0,0,1-1.55-3.1,4.064,4.064,0,0,1,1.55-2.917,5.834,5.834,0,0,0,2.1-4.193,6.008,6.008,0,0,0-2.1-4.375.881.881,0,0,0-1.276,0,.881.881,0,0,0,0,1.276,4.778,4.778,0,0,1,1.55,3.1A4.064,4.064,0,0,1,216.932,6.567Z" transform="translate(-192.957 0.999)" fill="#02fdc3"/>
        <path id="Path_30" data-name="Path 30" d="M311.938,10.759a6.545,6.545,0,0,0,2.1,4.375.827.827,0,0,0,.638.273.65.65,0,0,0,.547-.273.881.881,0,0,0,0-1.276,4.779,4.779,0,0,1-1.55-3.1,4.064,4.064,0,0,1,1.55-2.917,5.639,5.639,0,0,0,2.188-4.193,5.863,5.863,0,0,0-2.1-4.375.881.881,0,0,0-1.276,0,.881.881,0,0,0,0,1.276,4.778,4.778,0,0,1,1.55,3.1,4.23,4.23,0,0,1-1.55,2.917A6,6,0,0,0,311.938,10.759Z" transform="translate(-280.033 1)" fill="#02fdc3"/>
        <path id="Path_31" data-name="Path 31" d="M126.559,10.759a6.545,6.545,0,0,0,2.1,4.375.827.827,0,0,0,.638.273.65.65,0,0,0,.547-.273.881.881,0,0,0,0-1.276,4.778,4.778,0,0,1-1.55-3.1,4.064,4.064,0,0,1,1.55-2.917,5.639,5.639,0,0,0,2.188-4.193,5.863,5.863,0,0,0-2.1-4.375.881.881,0,0,0-1.276,0,.881.881,0,0,0,0,1.276,4.778,4.778,0,0,1,1.55,3.1,4.23,4.23,0,0,1-1.55,2.917A6,6,0,0,0,126.559,10.759Z" transform="translate(-113.797 1)" fill="#02fdc3"/>
        <path id="Path_32" data-name="Path 32" d="M77.587,285.295c-6.472-1.094-9.754-4.74-11.121-12.033a.93.93,0,1,0-1.823.365c1.458,8.113,5.378,12.215,12.58,13.491H77.4a.888.888,0,0,0,.912-.729A.946.946,0,0,0,77.587,285.295Z" transform="translate(-58.262 -244.274)" fill="#02fdc3"/>
      </g>
    </g>
  </g>
</svg>
