<svg xmlns="http://www.w3.org/2000/svg" width="104.421" height="86.98" viewBox="0 0 104.421 86.98">
  <g id="Group_188" data-name="Group 188" transform="translate(1.799 21.691) rotate(-13)">
    <path id="Path_11" data-name="Path 11" d="M1422.632-221.644h21.526l22.69,43.634Z" transform="translate(-1422.632 243.17)" fill="none" stroke="#02fdc3" stroke-linecap="square" stroke-linejoin="round" stroke-width="3"/>
    <path id="Path_12" data-name="Path 12" d="M1506.3-221.644h-21.526l-22.69,43.634Z" transform="translate(-1417.871 243.17)" fill="none" stroke="#02fdc3" stroke-linecap="square" stroke-linejoin="round" stroke-width="3"/>
    <path id="Path_13" data-name="Path 13" d="M1441.84-221.644h45.38l-22.69,43.634Z" transform="translate(-1420.314 243.17)" fill="none" stroke="#02fdc3" stroke-linecap="square" stroke-linejoin="round" stroke-width="3"/>
    <path id="Path_14" data-name="Path 14" d="M1444.158-240.852l-21.526,21.526h21.526l11.054-11.054Z" transform="translate(-1422.632 240.852)" fill="none" stroke="#02fdc3" stroke-linecap="square" stroke-linejoin="round" stroke-width="3"/>
    <path id="Path_15" data-name="Path 15" d="M1482.827-240.852l22.384,21.526h-22.384L1471.13-230Z" transform="translate(-1416.779 240.852)" fill="none" stroke="#02fdc3" stroke-linecap="square" stroke-linejoin="round" stroke-width="3"/>
    <path id="Path_16" data-name="Path 16" d="M1441.84-240.852l11.054,10.472,10.4-10.4Z" transform="translate(-1420.314 240.852)" fill="none" stroke="#02fdc3" stroke-linecap="square" stroke-linejoin="round" stroke-width="3"/>
    <path id="Path_17" data-name="Path 17" d="M1461.559-240.852,1472.286-230l11.249-10.783Z" transform="translate(-1417.935 240.852)" fill="none" stroke="#02fdc3" stroke-linecap="square" stroke-linejoin="round" stroke-width="3"/>
    <path id="Path_18" data-name="Path 18" d="M1463.948-220.44l-11.391-10.792-10.717,10.717Z" transform="translate(-1420.314 242.012)" fill="none" stroke="#02fdc3" stroke-linecap="square" stroke-linejoin="round" stroke-width="3"/>
    <path id="Path_19" data-name="Path 19" d="M1483.675-220.44l-11.391-10.792-10.717,10.717Z" transform="translate(-1417.933 242.012)" fill="none" stroke="#02fdc3" stroke-linecap="square" stroke-linejoin="round" stroke-width="3"/>
    <path id="Path_20" data-name="Path 20" d="M1462.794-219.279,1451.4-230l10.736-10.783.645-.073L1473.511-230Z" transform="translate(-1419.16 240.852)" fill="none" stroke="#02fdc3" stroke-linecap="square" stroke-linejoin="round" stroke-width="3"/>
  </g>
</svg>
