<svg xmlns="http://www.w3.org/2000/svg" width="195.142" height="168.81" viewBox="0 0 195.142 168.81">
  <g id="Group_187" data-name="Group 187" transform="translate(40.626 1.906) rotate(19)">
    <path id="Path_11" data-name="Path 11" d="M1422.632-221.644h39.289L1503.333-142Z" transform="translate(-1422.632 260.932)" fill="none" stroke="#02fdc3" stroke-linecap="square" stroke-linejoin="round" stroke-width="3"/>
    <path id="Path_12" data-name="Path 12" d="M1542.788-221.644H1503.5L1462.087-142Z" transform="translate(-1381.385 260.932)" fill="none" stroke="#02fdc3" stroke-linecap="square" stroke-linejoin="round" stroke-width="3"/>
    <path id="Path_13" data-name="Path 13" d="M1441.84-221.644h82.825L1483.253-142Z" transform="translate(-1402.551 260.932)" fill="none" stroke="#02fdc3" stroke-linecap="square" stroke-linejoin="round" stroke-width="3"/>
    <path id="Path_14" data-name="Path 14" d="M1461.921-240.852l-39.289,39.289h39.289l20.176-20.175Z" transform="translate(-1422.632 240.852)" fill="none" stroke="#02fdc3" stroke-linecap="square" stroke-linejoin="round" stroke-width="3"/>
    <path id="Path_15" data-name="Path 15" d="M1492.479-240.852l40.854,39.289h-40.854l-21.349-19.475Z" transform="translate(-1371.93 240.852)" fill="none" stroke="#02fdc3" stroke-linecap="square" stroke-linejoin="round" stroke-width="3"/>
    <path id="Path_16" data-name="Path 16" d="M1441.84-240.852l20.175,19.114L1481-240.719Z" transform="translate(-1402.551 240.852)" fill="none" stroke="#02fdc3" stroke-linecap="square" stroke-linejoin="round" stroke-width="3"/>
    <path id="Path_17" data-name="Path 17" d="M1461.559-240.852l19.578,19.814,20.53-19.681Z" transform="translate(-1381.937 240.852)" fill="none" stroke="#02fdc3" stroke-linecap="square" stroke-linejoin="round" stroke-width="3"/>
    <path id="Path_18" data-name="Path 18" d="M1482.191-211.535l-20.792-19.7-19.559,19.56Z" transform="translate(-1402.551 250.908)" fill="none" stroke="#02fdc3" stroke-linecap="square" stroke-linejoin="round" stroke-width="3"/>
    <path id="Path_19" data-name="Path 19" d="M1501.918-211.535l-20.79-19.7-19.561,19.56Z" transform="translate(-1381.927 250.908)" fill="none" stroke="#02fdc3" stroke-linecap="square" stroke-linejoin="round" stroke-width="3"/>
    <path id="Path_20" data-name="Path 20" d="M1472.194-201.478l-20.791-19.56,19.6-19.681,1.177-.133,19.577,19.814Z" transform="translate(-1392.554 240.852)" fill="none" stroke="#02fdc3" stroke-linecap="square" stroke-linejoin="round" stroke-width="3"/>
  </g>
</svg>
