<svg id="happiness" xmlns="http://www.w3.org/2000/svg" width="55.002" height="55.002" viewBox="0 0 55.002 55.002">
  <g id="Group_12" data-name="Group 12" transform="translate(31.491 16.853)">
    <g id="Group_11" data-name="Group 11">
      <path id="Path_33" data-name="Path 33" d="M294.86,157.082a1.074,1.074,0,0,0-1.5.254l-.021.029a1.074,1.074,0,1,0,1.752,1.243l.021-.029A1.074,1.074,0,0,0,294.86,157.082Z" transform="translate(-293.143 -156.884)" fill="#02fdc3"/>
    </g>
  </g>
  <g id="Group_14" data-name="Group 14" transform="translate(23.411 19.703)">
    <g id="Group_13" data-name="Group 13">
      <path id="Path_34" data-name="Path 34" d="M225.275,183.8a1.074,1.074,0,0,0-1.512-.149,13.314,13.314,0,0,1-5.041,2.59,1.074,1.074,0,1,0,.554,2.076,15.449,15.449,0,0,0,5.849-3A1.074,1.074,0,0,0,225.275,183.8Z" transform="translate(-217.925 -183.411)" fill="#02fdc3"/>
    </g>
  </g>
  <g id="Group_16" data-name="Group 16" transform="translate(0 5.801)">
    <g id="Group_15" data-name="Group 15">
      <path id="Path_35" data-name="Path 35" d="M51.779,72.528a3.226,3.226,0,0,0-3.223,3.223v.537a9.144,9.144,0,0,1-7.577,9,5.149,5.149,0,0,0,.889-2.9v-.746a5.178,5.178,0,0,0-10.357,0v.746a5.147,5.147,0,0,0,.848,2.835,9.146,9.146,0,0,1-7.236-8.932V75.75a3.223,3.223,0,0,0-6.446,0v.537a15.449,15.449,0,0,0,1.3,6.237h-7.31V71.706a1.074,1.074,0,0,0-.779-1.033A13.49,13.49,0,0,1,2.149,57.76v-.537a1.074,1.074,0,1,1,2.149,0v.537a11.293,11.293,0,0,0,11.28,11.28h5.17a11.293,11.293,0,0,0,11.28-11.28v-.537a1.074,1.074,0,1,1,2.149,0v.537a13.334,13.334,0,0,1-.884,4.794,1.074,1.074,0,0,0,2.006.769,15.475,15.475,0,0,0,1.027-5.563v-.537a3.223,3.223,0,0,0-6.446,0v.537a9.144,9.144,0,0,1-7.577,9,5.149,5.149,0,0,0,.889-2.9v-.746a5.178,5.178,0,1,0-10.357,0v.746a5.146,5.146,0,0,0,.848,2.834A9.146,9.146,0,0,1,6.446,57.76v-.537a3.223,3.223,0,1,0-6.446,0v.537a15.422,15.422,0,0,0,3.207,9.457,15.74,15.74,0,0,0,7.313,5.277V83.6a1.074,1.074,0,0,0,1.074,1.074h.2v17.454a1.074,1.074,0,0,0,2.149,0V84.673h7.193q.352.548.753,1.071c.071.093.145.183.218.274v16.108a1.074,1.074,0,0,0,2.149,0V88.214A15.7,15.7,0,0,0,29.2,91.021v11.106a1.074,1.074,0,0,0,2.149,0V90.234a1.074,1.074,0,0,0-.779-1.033,13.49,13.49,0,0,1-9.741-12.913V75.75a1.074,1.074,0,0,1,2.149,0v.537a11.293,11.293,0,0,0,11.28,11.28h5.17a11.293,11.293,0,0,0,11.28-11.28V75.75a1.074,1.074,0,0,1,2.149,0v.537a13.448,13.448,0,0,1-9.967,12.976,1.074,1.074,0,0,0-.8,1.038V98.08a1.074,1.074,0,0,0,2.149,0V91.1A15.6,15.6,0,0,0,55,76.288V75.75A3.226,3.226,0,0,0,51.779,72.528Zm-36.8-9.417a3.03,3.03,0,1,1,6.06,0v.746a3.03,3.03,0,0,1-6.06,0ZM39.72,82.385a3.03,3.03,0,0,1-6.06,0v-.746a3.03,3.03,0,0,1,6.06,0Z" transform="translate(0 -54)" fill="#02fdc3"/>
    </g>
  </g>
  <g id="Group_18" data-name="Group 18" transform="translate(42.09 52.854)">
    <g id="Group_17" data-name="Group 17">
      <path id="Path_36" data-name="Path 36" d="M393.634,492.315a1.074,1.074,0,1,0,.315.76A1.082,1.082,0,0,0,393.634,492.315Z" transform="translate(-391.8 -492)" fill="#02fdc3"/>
    </g>
  </g>
  <g id="Group_20" data-name="Group 20" transform="translate(16.938 40.177)">
    <g id="Group_19" data-name="Group 19">
      <path id="Path_37" data-name="Path 37" d="M158.741,374a1.074,1.074,0,0,0-1.074,1.074v12.676a1.074,1.074,0,0,0,2.148,0V375.074A1.074,1.074,0,0,0,158.741,374Z" transform="translate(-157.667 -374)" fill="#02fdc3"/>
    </g>
  </g>
  <g id="Group_22" data-name="Group 22" transform="translate(48.986 8.809)">
    <g id="Group_21" data-name="Group 21">
      <path id="Path_38" data-name="Path 38" d="M457.074,82A1.074,1.074,0,0,0,456,83.074V84.41a1.074,1.074,0,1,0,2.149,0V83.074A1.074,1.074,0,0,0,457.074,82Z" transform="translate(-456 -82)" fill="#02fdc3"/>
    </g>
  </g>
  <g id="Group_24" data-name="Group 24" transform="translate(48.986 15.208)">
    <g id="Group_23" data-name="Group 23">
      <path id="Path_39" data-name="Path 39" d="M457.074,141.57A1.074,1.074,0,0,0,456,142.644v1.335a1.074,1.074,0,1,0,2.149,0v-1.335A1.074,1.074,0,0,0,457.074,141.57Z" transform="translate(-456 -141.57)" fill="#02fdc3"/>
    </g>
  </g>
  <g id="Group_26" data-name="Group 26" transform="translate(51.518 12.676)">
    <g id="Group_25" data-name="Group 25">
      <path id="Path_40" data-name="Path 40" d="M481.98,118h-1.335a1.074,1.074,0,0,0,0,2.149h1.335a1.074,1.074,0,0,0,0-2.149Z" transform="translate(-479.57 -118)" fill="#02fdc3"/>
    </g>
  </g>
  <g id="Group_28" data-name="Group 28" transform="translate(45.119 12.676)">
    <g id="Group_27" data-name="Group 27">
      <path id="Path_41" data-name="Path 41" d="M422.41,118h-1.335a1.074,1.074,0,1,0,0,2.149h1.335a1.074,1.074,0,0,0,0-2.149Z" transform="translate(-420 -118)" fill="#02fdc3"/>
    </g>
  </g>
  <g id="Group_30" data-name="Group 30" transform="translate(22.546)">
    <g id="Group_29" data-name="Group 29">
      <path id="Path_42" data-name="Path 42" d="M210.947,0a1.074,1.074,0,0,0-1.074,1.074V2.41a1.074,1.074,0,1,0,2.148,0V1.074A1.074,1.074,0,0,0,210.947,0Z" transform="translate(-209.873)" fill="#02fdc3"/>
    </g>
  </g>
  <g id="Group_32" data-name="Group 32" transform="translate(22.546 6.399)">
    <g id="Group_31" data-name="Group 31">
      <path id="Path_43" data-name="Path 43" d="M210.947,59.57a1.074,1.074,0,0,0-1.074,1.074V61.98a1.074,1.074,0,1,0,2.148,0V60.644A1.074,1.074,0,0,0,210.947,59.57Z" transform="translate(-209.873 -59.57)" fill="#02fdc3"/>
    </g>
  </g>
  <g id="Group_34" data-name="Group 34" transform="translate(25.078 3.867)">
    <g id="Group_33" data-name="Group 33">
      <path id="Path_44" data-name="Path 44" d="M235.853,36h-1.335a1.074,1.074,0,1,0,0,2.149h1.335a1.074,1.074,0,0,0,0-2.149Z" transform="translate(-233.443 -36)" fill="#02fdc3"/>
    </g>
  </g>
  <g id="Group_36" data-name="Group 36" transform="translate(18.679 3.867)">
    <g id="Group_35" data-name="Group 35">
      <path id="Path_45" data-name="Path 45" d="M176.283,36h-1.335a1.074,1.074,0,1,0,0,2.149h1.335a1.074,1.074,0,0,0,0-2.149Z" transform="translate(-173.873 -36)" fill="#02fdc3"/>
    </g>
  </g>
</svg>
