<svg xmlns="http://www.w3.org/2000/svg" xmlns:xlink="http://www.w3.org/1999/xlink" width="15.696" height="15.751" viewBox="0 0 15.696 15.751">
  <defs>
    <clipPath id="clip-path">
      <path id="path" d="M126.79-10.366h4.554v7.074a2.958,2.958,0,0,1-.414,1.53,3.038,3.038,0,0,1-1.116,1.107,3.008,3.008,0,0,1-1.53.4h-9.54a2.833,2.833,0,0,1-1.53-.4,3.181,3.181,0,0,1-1.125-1.116,2.91,2.91,0,0,1-.423-1.53v-7.056h4.554a3.962,3.962,0,0,0-.5,3.636,3.854,3.854,0,0,0,1.6,2.016,3.818,3.818,0,0,0,1.629.621,4.064,4.064,0,0,0,1.719-.135,3.933,3.933,0,0,0,1.512-.846,3.819,3.819,0,0,0,1.008-1.44,4.054,4.054,0,0,0,.306-1.872,4.357,4.357,0,0,0-.7-2Zm-9.18-1.746v-3.4a.483.483,0,0,1,.036-.243.686.686,0,0,1,.252-.117l.162-.036v3.8h.648v-3.87h.414v3.87h.648V-16h8.514a2.927,2.927,0,0,1,1.5.4,3.18,3.18,0,0,1,1.116,1.089,2.884,2.884,0,0,1,.441,1.476q.018.45.018,1.08-.018,1.332-.018,1.1H126.52a.31.31,0,0,1-.252-.108,4.137,4.137,0,0,0-1.782-.972,3.885,3.885,0,0,0-1.98.009,4.22,4.22,0,0,0-1.782.981.259.259,0,0,1-.18.09h-4.77l-.09-.018v-.684q-.018.216-.018-.828a8.081,8.081,0,0,1,.036-.828,2.916,2.916,0,0,1,1.206-2.178l.072-.018v3.294Zm12.312-1.242v-.828a.5.5,0,0,0-.135-.369.475.475,0,0,0-.351-.135q-.828-.018-1.674,0a.453.453,0,0,0-.36.144.553.553,0,0,0-.126.378v1.656a.5.5,0,0,0,.135.369.475.475,0,0,0,.351.135h1.656a.5.5,0,0,0,.369-.135.5.5,0,0,0,.135-.369Zm-6.408,8.388a3.141,3.141,0,0,1-1.566-.4,2.979,2.979,0,0,1-1.134-1.116,3.023,3.023,0,0,1-.414-1.548,3.023,3.023,0,0,1,.414-1.548,3.114,3.114,0,0,1,1.134-1.134,3.021,3.021,0,0,1,1.557-.423,2.973,2.973,0,0,1,1.548.423,3.136,3.136,0,0,1,1.125,1.134,3.023,3.023,0,0,1,.414,1.548,3.023,3.023,0,0,1-.414,1.548,3,3,0,0,1-1.125,1.116,3.057,3.057,0,0,1-1.539.4Zm2.268-3.078a2.251,2.251,0,0,0-.306-1.143,2.262,2.262,0,0,0-.828-.837,2.22,2.22,0,0,0-1.143-.306,2.22,2.22,0,0,0-1.143.306,2.283,2.283,0,0,0-.828.828,2.22,2.22,0,0,0-.306,1.143,2.22,2.22,0,0,0,.306,1.143,2.354,2.354,0,0,0,.828.837,2.171,2.171,0,0,0,1.143.315,2.22,2.22,0,0,0,1.143-.306,2.283,2.283,0,0,0,.828-.828,2.236,2.236,0,0,0,.306-1.152Z" transform="translate(0 16)" fill="none" clip-rule="evenodd"/>
    </clipPath>
    <clipPath id="clip-path-2">
      <path id="path-2" data-name="path" d="M-1133.346,188.184h1440v-3843h-1440Z" transform="translate(0 16)" fill="none"/>
    </clipPath>
  </defs>
  <g id="group" transform="translate(-115.666)" clip-path="url(#clip-path)">
    <g id="group-2" data-name="group" clip-path="url(#clip-path-2)">
      <path id="path-3" data-name="path" d="M110.666-21h25.7V4.751h-25.7Z" transform="translate(0 16)" fill="#fff"/>
    </g>
  </g>
</svg>
