<svg xmlns="http://www.w3.org/2000/svg" xmlns:xlink="http://www.w3.org/1999/xlink" width="38.165" height="38.299" viewBox="0 0 38.165 38.299">
  <defs>
    <clipPath id="clip-path">
      <path id="path" d="M142.714-2.3h11.073V14.9a7.193,7.193,0,0,1-1.007,3.72,7.423,7.423,0,0,1-6.434,3.676h-23.2a6.888,6.888,0,0,1-3.72-.963,7.736,7.736,0,0,1-2.735-2.714,7.077,7.077,0,0,1-1.029-3.72V-2.257h11.073a9.634,9.634,0,0,0-1.226,8.841,9.372,9.372,0,0,0,3.9,4.9A9.284,9.284,0,0,0,133.37,13a9.882,9.882,0,0,0,4.18-.328,9.564,9.564,0,0,0,3.676-2.057,9.287,9.287,0,0,0,2.451-3.5,9.858,9.858,0,0,0,.744-4.552A10.593,10.593,0,0,0,142.714-2.3ZM120.393-6.546v-8.272a1.174,1.174,0,0,1,.088-.591,1.668,1.668,0,0,1,.613-.284l.394-.088v9.235h1.576v-9.41h1.007v9.41h1.576V-16h20.7a7.117,7.117,0,0,1,3.655.985,7.732,7.732,0,0,1,2.714,2.648,7.013,7.013,0,0,1,1.072,3.589q.044,1.094.044,2.626-.044,3.239-.044,2.67h-11.73a.754.754,0,0,1-.613-.263,10.059,10.059,0,0,0-4.333-2.363,9.447,9.447,0,0,0-4.814.022A10.26,10.26,0,0,0,127.964-3.7a.63.63,0,0,1-.438.219h-11.6l-.219-.044V-5.189q-.044.525-.044-2.013a19.657,19.657,0,0,1,.088-2.013,7.091,7.091,0,0,1,2.932-5.3l.175-.044v8.009Zm29.937-3.02v-2.013a1.212,1.212,0,0,0-.328-.9,1.155,1.155,0,0,0-.853-.328q-2.013-.044-4.07,0a1.1,1.1,0,0,0-.875.35,1.345,1.345,0,0,0-.306.919v4.027a1.212,1.212,0,0,0,.328.9,1.155,1.155,0,0,0,.853.328H149.1a1.212,1.212,0,0,0,.9-.328,1.212,1.212,0,0,0,.328-.9Zm-15.581,20.4a7.637,7.637,0,0,1-3.808-.985,7.243,7.243,0,0,1-2.757-2.714,7.349,7.349,0,0,1-1.007-3.764A7.349,7.349,0,0,1,128.183-.4a7.572,7.572,0,0,1,2.757-2.757,7.345,7.345,0,0,1,3.786-1.029,7.23,7.23,0,0,1,3.764,1.029A7.625,7.625,0,0,1,141.226-.4a7.349,7.349,0,0,1,1.007,3.764,7.349,7.349,0,0,1-1.007,3.764,7.289,7.289,0,0,1-2.735,2.714,7.434,7.434,0,0,1-3.742.985Zm5.515-7.484a5.474,5.474,0,0,0-.744-2.779,5.5,5.5,0,0,0-2.013-2.035,5.563,5.563,0,0,0-5.558,0A5.55,5.55,0,0,0,129.934.544a5.4,5.4,0,0,0-.744,2.779,5.4,5.4,0,0,0,.744,2.779,5.725,5.725,0,0,0,2.013,2.035,5.279,5.279,0,0,0,2.779.766,5.4,5.4,0,0,0,2.779-.744,5.55,5.55,0,0,0,2.013-2.013,5.438,5.438,0,0,0,.744-2.8Z" transform="translate(-115.666 16)" fill="rgba(0,0,0,0)" clip-rule="evenodd"/>
    </clipPath>
    <clipPath id="clip-path-2">
      <path id="path-2" data-name="path" d="M-1133.346,5689.547h3501.4V-3654.815h-3501.4Z" transform="translate(1133.346 3654.815)" fill="rgba(0,0,0,0)"/>
    </clipPath>
  </defs>
  <g id="group" clip-path="url(#clip-path)">
    <g id="group-2" data-name="group" transform="translate(-3037.007 -8847.884)" clip-path="url(#clip-path-2)">
      <path id="path-3" data-name="path" d="M110.666-21h62.481V41.614H110.666Z" transform="translate(2914.184 8856.727)" fill="#95989a"/>
    </g>
  </g>
</svg>
