<svg xmlns="http://www.w3.org/2000/svg" xmlns:xlink="http://www.w3.org/1999/xlink" width="38.078" height="38.297" viewBox="0 0 38.078 38.297">
  <defs>
    <clipPath id="clip-path">
      <path id="path" d="M190.1-16H157.669a2.78,2.78,0,0,0-2.013.81,2.621,2.621,0,0,0-.832,1.948V19.583a2.551,2.551,0,0,0,.832,1.926,2.767,2.767,0,0,0,1.97.788H190.1a2.767,2.767,0,0,0,1.97-.788,2.551,2.551,0,0,0,.832-1.926V-13.243a2.621,2.621,0,0,0-.832-1.948,2.78,2.78,0,0,0-2.013-.81ZM166.379,16.082h-5.734V-1.207h5.734ZM163.49-3.57h-.044a3.122,3.122,0,0,1-2.276-.853,2.871,2.871,0,0,1-.875-2.145,2.836,2.836,0,0,1,.9-2.145,3.258,3.258,0,0,1,2.342-.853,3.18,3.18,0,0,1,2.32.853,2.87,2.87,0,0,1,.875,2.145,2.87,2.87,0,0,1-.875,2.145,3.24,3.24,0,0,1-2.363.853Zm23.591,19.652h-5.734V6.8a5.1,5.1,0,0,0-.656-2.8,2.52,2.52,0,0,0-2.232-1.094,2.908,2.908,0,0,0-1.926.657,3.5,3.5,0,0,0-1.05,1.444,4.3,4.3,0,0,0-.175,1.4v9.673h-5.734V8.028q.044-8.228,0-9.235h5.734V1.244a6.763,6.763,0,0,1,1.707-1.882,6.089,6.089,0,0,1,3.458-.963A6.143,6.143,0,0,1,185.2.282a8.383,8.383,0,0,1,1.882,5.865Z" transform="translate(-154.824 16)" fill="rgba(0,0,0,0)" clip-rule="evenodd"/>
    </clipPath>
    <clipPath id="clip-path-2">
      <path id="path-2" data-name="path" d="M-1133.346,5689.547h3501.4V-3654.815h-3501.4Z" transform="translate(1133.346 3654.815)" fill="rgba(0,0,0,0)"/>
    </clipPath>
  </defs>
  <g id="group" clip-path="url(#clip-path)">
    <g id="group-2" data-name="group" transform="translate(-3132.222 -8847.884)" clip-path="url(#clip-path-2)">
      <path id="path-3" data-name="path" d="M149.824-21h62.393V41.612H149.824Z" transform="translate(2970.24 8856.727)" fill="#95989a"/>
    </g>
  </g>
</svg>
