<svg xmlns="http://www.w3.org/2000/svg" width="317.538" height="51.999" viewBox="0 0 317.538 51.999">
  <g id="Group_202" data-name="Group 202" transform="translate(-561.063 -154.034)">
    <path id="Path_27" data-name="Path 27" d="M-256-3074.305H61.538" transform="translate(817.063 3245.684)" fill="none" stroke="#02fdc3" stroke-width="1"/>
    <g id="Group_7" data-name="Group 7" transform="translate(686 154.534)">
      <path id="Path_11" data-name="Path 11" d="M1422.632-221.644h16.848l17.759,34.151Z" transform="translate(-1422.632 238.491)" fill="none" stroke="#02fdc3" stroke-linecap="square" stroke-linejoin="round" stroke-width="1"/>
      <path id="Path_12" data-name="Path 12" d="M1496.693-221.644h-16.848l-17.759,34.151Z" transform="translate(-1427.48 238.491)" fill="none" stroke="#02fdc3" stroke-linecap="square" stroke-linejoin="round" stroke-width="1"/>
      <path id="Path_13" data-name="Path 13" d="M1441.84-221.644h35.517L1459.6-187.492Z" transform="translate(-1424.992 238.491)" fill="none" stroke="#02fdc3" stroke-linecap="square" stroke-linejoin="round" stroke-width="1"/>
      <path id="Path_14" data-name="Path 14" d="M1439.48-240.852,1422.632-224h16.848l8.652-8.652Z" transform="translate(-1422.632 240.852)" fill="none" stroke="#02fdc3" stroke-linecap="square" stroke-linejoin="round" stroke-width="1"/>
      <path id="Path_15" data-name="Path 15" d="M1480.285-240.852,1497.8-224h-17.519l-9.155-8.351Z" transform="translate(-1428.591 240.852)" fill="none" stroke="#02fdc3" stroke-linecap="square" stroke-linejoin="round" stroke-width="1"/>
      <path id="Path_16" data-name="Path 16" d="M1441.84-240.852l8.651,8.2,8.139-8.139Z" transform="translate(-1424.992 240.852)" fill="none" stroke="#02fdc3" stroke-linecap="square" stroke-linejoin="round" stroke-width="1"/>
      <path id="Path_17" data-name="Path 17" d="M1461.559-240.852l8.4,8.5,8.8-8.44Z" transform="translate(-1427.415 240.852)" fill="none" stroke="#02fdc3" stroke-linecap="square" stroke-linejoin="round" stroke-width="1"/>
      <path id="Path_18" data-name="Path 18" d="M1459.144-222.785l-8.916-8.446-8.387,8.388Z" transform="translate(-1424.992 239.669)" fill="none" stroke="#02fdc3" stroke-linecap="square" stroke-linejoin="round" stroke-width="1"/>
      <path id="Path_19" data-name="Path 19" d="M1478.87-222.785l-8.915-8.446-8.388,8.388Z" transform="translate(-1427.416 239.669)" fill="none" stroke="#02fdc3" stroke-linecap="square" stroke-linejoin="round" stroke-width="1"/>
      <path id="Path_20" data-name="Path 20" d="M1460.318-223.967l-8.916-8.388,8.4-8.44.5-.057,8.4,8.5Z" transform="translate(-1426.167 240.852)" fill="none" stroke="#02fdc3" stroke-linecap="square" stroke-linejoin="round" stroke-width="1"/>
    </g>
  </g>
</svg>
