<svg xmlns="http://www.w3.org/2000/svg" width="198.454" height="45.19" viewBox="0 0 198.454 45.19">
  <g id="Group_190" data-name="Group 190" transform="translate(-1079.648 109.972)">
    <g id="Group_1" data-name="Group 1">
      <path id="Path_143" data-name="Path 143" d="M-70.321-9.972V-20.577c0-7.608-4.035-11.355-13.834-11.355a35.358,35.358,0,0,0-12.162,2.421l2.479,7.263a28.351,28.351,0,0,1,7.954-1.614c3.4,0,4.438.807,4.438,3.92v.749h-2.19c-9.683,0-14.871,3.747-14.871,10.548,0,5.706,3.977,9.8,10.145,9.8,3.516,0,7.032-1.1,9.28-4.5C-77.353-.4-74.759.634-70.782.922l2.306-7.32C-69.86-6.917-70.321-7.781-70.321-9.972ZM-84.846-6.859c-1.556,0-2.536-1.153-2.536-2.882,0-2.421,1.5-3.516,4.726-3.516h1.21V-8.7A4.249,4.249,0,0,1-84.846-6.859ZM-53.49,1.153A18.35,18.35,0,0,0-47.149.115l-2.017-8.127a3.216,3.216,0,0,1-1.21.231q-1.383,0-1.383-1.556v-34.7l-11.413,1.153V-8.877C-63.173-2.479-59.715,1.153-53.49,1.153Zm20.174,0A18.35,18.35,0,0,0-26.975.115l-2.017-8.127a3.216,3.216,0,0,1-1.21.231q-1.383,0-1.383-1.556v-34.7L-43-42.884V-8.877C-43-2.479-39.541,1.153-33.316,1.153ZM-8.242-31.932c-9.741,0-16.024,7.032-16.024,16.773,0,9.626,6.167,16.312,16.312,16.312A16.511,16.511,0,0,0,2.94-2.651l-4.9-6.974C-4.092-8.3-5.418-7.666-7.32-7.666c-2.94,0-5.072-1.326-5.072-7.493,0-6.225,1.844-8.185,5.188-8.185a8.328,8.328,0,0,1,5.418,2.133L2.94-27.84A16.033,16.033,0,0,0-8.242-31.932Zm36.025,0a11.167,11.167,0,0,0-8.7,3.92V-44.037L7.666-42.884V0H19.079V-20.577c1.326-2.075,2.651-3.055,3.862-3.055,1.038,0,1.729.576,1.729,3V0H36.083V-22.71C36.083-28.589,32.912-31.932,27.782-31.932ZM70.148-9.972V-20.577c0-7.608-4.035-11.355-13.834-11.355a35.358,35.358,0,0,0-12.162,2.421l2.479,7.263a28.351,28.351,0,0,1,7.954-1.614c3.4,0,4.438.807,4.438,3.92v.749h-2.19c-9.683,0-14.871,3.747-14.871,10.548,0,5.706,3.977,9.8,10.145,9.8,3.516,0,7.032-1.1,9.28-4.5C63.116-.4,65.709.634,69.687.922L71.992-6.4C70.609-6.917,70.148-7.781,70.148-9.972ZM55.622-6.859c-1.556,0-2.536-1.153-2.536-2.882,0-2.421,1.5-3.516,4.726-3.516h1.21V-8.7A4.249,4.249,0,0,1,55.622-6.859Zm41.213-24.9c-3.4,0-6.513,2.709-7.781,6.744l-.922-5.764H78.16V0H89.572V-14.006c.865-3.92,2.075-6.686,5.764-6.686a9.649,9.649,0,0,1,2.824.461l1.787-11.009A9.283,9.283,0,0,0,96.835-31.76Z" transform="translate(1178.154 -65.936)" fill="#01fcc2"/>
    </g>
  </g>
</svg>
