<svg xmlns="http://www.w3.org/2000/svg" width="55.405" height="55.414" viewBox="0 0 55.405 55.414">
  <g id="pizza" transform="translate(-0.065 10.406) rotate(-13)">
    <path id="XMLID_339_" d="M191.254,184.975a6.258,6.258,0,1,0,6.258,6.258A6.265,6.265,0,0,0,191.254,184.975Zm0,10.711a4.453,4.453,0,1,1,4.453-4.453A4.458,4.458,0,0,1,191.254,195.686Z" transform="translate(-168.239 -168.281)" fill="#02fdc3"/>
    <path id="XMLID_340_" d="M263.583,226.819a.9.9,0,1,0,.638.264A.909.909,0,0,0,263.583,226.819Z" transform="translate(-238.912 -206.348)" fill="#02fdc3"/>
    <path id="XMLID_341_" d="M222.514,236.55a.9.9,0,1,0,.638.264A.906.906,0,0,0,222.514,236.55Z" transform="translate(-201.549 -215.201)" fill="#02fdc3"/>
    <path id="XMLID_342_" d="M251.482,267.25a.9.9,0,1,0,.638.264A.908.908,0,0,0,251.482,267.25Z" transform="translate(-227.904 -243.13)" fill="#02fdc3"/>
    <path id="XMLID_792_" d="M397.122,276.18a.9.9,0,1,0,.638.264A.908.908,0,0,0,397.122,276.18Z" transform="translate(-360.4 -251.254)" fill="#02fdc3"/>
    <path id="XMLID_890_" d="M425.18,307.772a.9.9,0,1,0,.265-.638A.909.909,0,0,0,425.18,307.772Z" transform="translate(-386.746 -279.175)" fill="#02fdc3"/>
    <path id="XMLID_925_" d="M328.889,139.309l1.685-1.685a1.551,1.551,0,0,0,0-2.191l-1.685-1.685a1.551,1.551,0,0,0-2.191,0l-1.685,1.685a1.549,1.549,0,0,0,0,2.191l1.685,1.685a1.549,1.549,0,0,0,2.191,0Zm-2.418-2.78,1.323-1.323,1.323,1.323-1.323,1.323Z" transform="translate(-295.207 -121.266)" fill="#02fdc3"/>
    <path id="XMLID_938_" d="M402.114,398.238h-2.325a1.535,1.535,0,0,0-1.533,1.533V402.1a1.535,1.535,0,0,0,1.533,1.533h2.325a1.535,1.535,0,0,0,1.533-1.533v-2.325A1.535,1.535,0,0,0,402.114,398.238Zm-.272,3.587h-1.782v-1.782h1.782Z" transform="translate(-362.252 -362.297)" fill="#02fdc3"/>
    <path id="XMLID_940_" d="M325.463,324.54a.9.9,0,1,0,.638.264A.909.909,0,0,0,325.463,324.54Z" transform="translate(-295.207 -295.25)" fill="#02fdc3"/>
    <path id="XMLID_941_" d="M192.583,343.28a.9.9,0,1,0,.638.264A.9.9,0,0,0,192.583,343.28Z" transform="translate(-174.32 -312.299)" fill="#02fdc3"/>
    <path id="XMLID_957_" d="M47.21,236.644a.9.9,0,0,0-1.183.48,29.233,29.233,0,0,0-2.312,11.45.9.9,0,1,0,1.805,0,27.439,27.439,0,0,1,2.17-10.747.9.9,0,0,0-.48-1.183Z" transform="translate(-39.709 -215.222)" fill="#02fdc3"/>
    <path id="XMLID_1033_" d="M147.046,69a.9.9,0,0,0-1.183-.48,29.319,29.319,0,0,0-9.35,6.3A.9.9,0,1,0,137.79,76.1a27.52,27.52,0,0,1,8.777-5.917.9.9,0,0,0,.48-1.183Z" transform="translate(-123.892 -62.268)" fill="#02fdc3"/>
    <path id="XMLID_1244_" d="M304.582,398.979a.9.9,0,1,0,.638.264A.909.909,0,0,0,304.582,398.979Z" transform="translate(-276.212 -362.971)" fill="#02fdc3"/>
    <path id="XMLID_1543_" d="M263.522,408.72a.9.9,0,1,0,.638.264A.906.906,0,0,0,263.522,408.72Z" transform="translate(-238.857 -371.833)" fill="#02fdc3"/>
    <path id="XMLID_1990_" d="M46.212,43.781,43.189,30.357l0-.012-2.063-9.161,0-.008L37.961,7.146A5.016,5.016,0,0,0,33.418,0,33.328,33.328,0,0,0,.067,33.351a5.016,5.016,0,0,0,7.162,4.536l6.37,1.438v3.943a2.939,2.939,0,1,0,5.878,0V42.123a.491.491,0,0,1,.491-.491,2.289,2.289,0,0,0,1.476-.537l22.4,5.055a1.983,1.983,0,0,0,2.371-2.37ZM41.3,30.193a4.453,4.453,0,1,1-2.529-8.118,4.494,4.494,0,0,1,.713.057ZM9.032,36.444a4.991,4.991,0,0,0,1.06-2.777H11.3a2.3,2.3,0,0,1,2.3,2.3v1.509Zm13.23,2.046a4.453,4.453,0,1,1,7.965,2.737l-7.859-1.774a4.471,4.471,0,0,1-.105-.964ZM44.4,44.342a.17.17,0,0,1-.165.048L32.117,41.654a6.259,6.259,0,1,0-11.66-3.164,6.3,6.3,0,0,0,.071.94.9.9,0,0,0-.157.185.49.49,0,0,1-.4.213,2.3,2.3,0,0,0-2.3,2.3v1.145a1.134,1.134,0,0,1-2.268,0v-7.3a4.109,4.109,0,0,0-4.1-4.1H10.151a23.111,23.111,0,0,1,4.26-12,.9.9,0,0,0-1.471-1.047A24.928,24.928,0,0,0,8.3,33.351a3.213,3.213,0,1,1-6.426,0A31.523,31.523,0,0,1,33.418,1.805a3.213,3.213,0,0,1,0,6.426,24.926,24.926,0,0,0-14.542,4.648.9.9,0,0,0,1.047,1.47,23.132,23.132,0,0,1,13.5-4.313,4.992,4.992,0,0,0,3.1-1.077l2.549,11.319c-.1,0-.2-.008-.3-.008A6.258,6.258,0,1,0,41.72,32.049l2.732,12.129a.17.17,0,0,1-.048.165Z" transform="translate(0 0)" fill="#02fdc3"/>
    <path id="XMLID_1994_" d="M171.735,170.813a.9.9,0,1,0-.264.638A.909.909,0,0,0,171.735,170.813Z" transform="translate(-154.533 -154.575)" fill="#02fdc3"/>
  </g>
</svg>
