<svg xmlns="http://www.w3.org/2000/svg" width="83" height="83" viewBox="0 0 83 83">
  <g id="Group_205" data-name="Group 205" transform="translate(307 -4741)">
    <g id="_015-24-hours-1" data-name="015-24-hours-1" transform="translate(-289.118 4760)">
      <g id="Group_175" data-name="Group 175" transform="translate(0 0)">
        <g id="Group_174" data-name="Group 174">
          <path id="Path_136" data-name="Path 136" d="M46.867,23a.916.916,0,0,0-.916.916A22.1,22.1,0,1,1,39.535,8.333L37.492,8.25a.916.916,0,0,0,0,1.833l4.206.174a.916.916,0,0,0,.339-.064l.1-.064a1.155,1.155,0,0,0,.385-.394.921.921,0,0,0,0-.147.913.913,0,0,0,.046-.174l.367-4.206A.92.92,0,0,0,41.1,5.052l-.183,2.08a23.891,23.891,0,1,0,6.864,16.78A.916.916,0,0,0,46.867,23Z" transform="translate(0 0)"/>
        </g>
      </g>
      <g id="Group_177" data-name="Group 177" transform="translate(10.906 13.83)">
        <g id="Group_176" data-name="Group 176">
          <path id="Path_137" data-name="Path 137" d="M107.251,136.263a2.319,2.319,0,0,0-1.448-.394H99.388a6.912,6.912,0,0,1,.6-.8,19.647,19.647,0,0,1,2.52-2.328q1.833-1.5,2.621-2.2a8.549,8.549,0,0,0,1.53-1.943,5.2,5.2,0,0,0,.751-2.749,5.04,5.04,0,0,0-1.365-3.446,4.791,4.791,0,0,0-1.5-1.072,7.817,7.817,0,0,0-3.153-.6,7.331,7.331,0,0,0-2.7.458,5.591,5.591,0,0,0-1.906,1.2,5.03,5.03,0,0,0-1.127,1.659,4.581,4.581,0,0,0-.376,1.76,1.485,1.485,0,0,0,.4,1.1,1.374,1.374,0,0,0,1.017.4,1.283,1.283,0,0,0,1.054-.44,4.172,4.172,0,0,0,.651-1.255,6.084,6.084,0,0,1,.412-1,2.85,2.85,0,0,1,2.511-1.4,2.924,2.924,0,0,1,1.347.357,2.584,2.584,0,0,1,1.017.916,2.657,2.657,0,0,1,.376,1.393,3.484,3.484,0,0,1-.348,1.466,5.653,5.653,0,0,1-.981,1.512,10.775,10.775,0,0,1-1.668,1.421,19.265,19.265,0,0,0-1.833,1.576q-1.338,1.21-2.978,2.9a4.167,4.167,0,0,0-.724,1.146,3.034,3.034,0,0,0-.33,1.164,1.622,1.622,0,0,0,.513,1.191,1.943,1.943,0,0,0,1.43.5h8.981a1.585,1.585,0,0,0,1.2-.412,1.411,1.411,0,0,0,.394-1.017A1.274,1.274,0,0,0,107.251,136.263Z" transform="translate(-95.2 -120.728)"/>
        </g>
      </g>
      <g id="Group_179" data-name="Group 179" transform="translate(24.705 13.721)">
        <g id="Group_178" data-name="Group 178">
          <path id="Path_138" data-name="Path 138" d="M229.189,131.592a3.665,3.665,0,0,0-1.53-.238h-.522v-9.448q0-2.126-1.833-2.126a1.384,1.384,0,0,0-.981.385,9.843,9.843,0,0,0-1.045,1.237l-6.47,8.66-.449.6q-.183.247-.357.5a2.42,2.42,0,0,0-.257.5,1.375,1.375,0,0,0-.083.467,1.833,1.833,0,0,0,.577,1.43,2.52,2.52,0,0,0,1.741.522h6.131v2.3a2.016,2.016,0,0,0,.412,1.356,1.558,1.558,0,0,0,2.2.015l.015-.015a2.025,2.025,0,0,0,.412-1.356v-2.291h.742a2.447,2.447,0,0,0,1.393-.321,1.173,1.173,0,0,0,.467-1.054A1.1,1.1,0,0,0,229.189,131.592Zm-5.086-.266h-5.251l5.251-7.093Z" transform="translate(-215.66 -119.779)"/>
        </g>
      </g>
    </g>
    <g id="Ellipse_64" data-name="Ellipse 64" transform="translate(-307 4741)" fill="none" stroke="#1d1d1d" stroke-width="2">
      <circle cx="41.5" cy="41.5" r="41.5" stroke="none"/>
      <circle cx="41.5" cy="41.5" r="40.5" fill="none"/>
    </g>
  </g>
</svg>
