<svg xmlns="http://www.w3.org/2000/svg" width="83" height="83" viewBox="0 0 83 83">
  <g id="Group_198" data-name="Group 198" transform="translate(-131 -4996)">
    <g id="_005-laptop" data-name="005-laptop" transform="translate(147.857 5019)">
      <g id="Group_134" data-name="Group 134" transform="translate(14.413 8.855)">
        <g id="Group_133" data-name="Group 133">
          <path id="Path_115" data-name="Path 115" d="M166.481,170.293v-3.977a2.386,2.386,0,0,0-2.561-2.561h-4.637v-4.709a2.609,2.609,0,0,0-2.776-2.776h-8.749a2.609,2.609,0,0,0-2.776,2.776v4.518a2.537,2.537,0,0,0,2.076,2.688v1.718a.8.8,0,0,0,1.408.509l1.8-2.147h3.34v3.977a2.386,2.386,0,0,0,2.553,2.545h.549l1.654,1.98a.8.8,0,0,0,1.408-.509v-1.471h4.152a2.386,2.386,0,0,0,2.561-2.561Zm-12.447-5.536H149.89a.8.8,0,0,0-.573.3l-.628.756v-.239a.859.859,0,0,0-.867-.8,1.05,1.05,0,0,1-1.185-1.185l-.048-4.549a1.05,1.05,0,0,1,1.185-1.185h8.749a1.05,1.05,0,0,1,1.185,1.185v4.518a1.466,1.466,0,0,1,0,.167h-1.551A2.537,2.537,0,0,0,154.033,164.758Zm10.857,5.5c0,.97-.7.97-.97.97h-4.955a.8.8,0,0,0-.8.8v.072l-.493-.589a.8.8,0,0,0-.612-.286h-.907c-.97,0-.97-.7-.97-.97v-3.977a1.361,1.361,0,0,1,.056-.429c.087-.27.318-.533.915-.533h7.763c.97,0,.97.7.97.97Z" transform="translate(-144.975 -156.265)"/>
        </g>
      </g>
      <g id="Group_136" data-name="Group 136" transform="translate(0 0)">
        <g id="Group_135" data-name="Group 135">
          <path id="Path_116" data-name="Path 116" d="M48.637,99.1V97.18a1.726,1.726,0,0,0-1.726-1.726h-2.06V70.584a3.07,3.07,0,0,0-3.372-3.372H7.159a3.07,3.07,0,0,0-3.372,3.372V95.454H1.742A1.726,1.726,0,0,0,.016,97.18V99.1a3.07,3.07,0,0,0,3.372,3.372H45.256a3.07,3.07,0,0,0,3.38-3.372ZM5.369,70.584c0-1.249.533-1.782,1.782-1.782H41.494c1.249,0,1.782.533,1.782,1.782v2.211H5.369Zm0,3.8H43.276V95.319a.135.135,0,0,1-.135.135H5.5a.135.135,0,0,1-.135-.135Zm39.879,26.5H3.389c-1.249,0-1.782-.533-1.782-1.782V97.18a.135.135,0,0,1,.135-.135H46.9a.135.135,0,0,1,.135.135v1.925C47.038,100.354,46.505,100.887,45.248,100.887Z" transform="translate(0 -67.195)"/>
        </g>
      </g>
      <g id="Group_138" data-name="Group 138" transform="translate(23.241 2.562)">
        <g id="Group_137" data-name="Group 137">
          <ellipse id="Ellipse_51" data-name="Ellipse 51" cx="1.082" cy="1.082" rx="1.082" ry="1.082"/>
        </g>
      </g>
    </g>
    <g id="Ellipse_52" data-name="Ellipse 52" transform="translate(131 4996)" fill="none" stroke="#1d1d1d" stroke-width="2">
      <circle cx="41.5" cy="41.5" r="41.5" stroke="none"/>
      <circle cx="41.5" cy="41.5" r="40.5" fill="none"/>
    </g>
  </g>
</svg>
