<svg xmlns="http://www.w3.org/2000/svg" width="83" height="83" viewBox="0 0 83 83">
  <g id="Group_201" data-name="Group 201" transform="translate(-131 -5148)">
    <g id="_002-tools" data-name="002-tools" transform="translate(151.527 5169)">
      <g id="Group_124" data-name="Group 124" transform="translate(0 0)">
        <path id="Path_110" data-name="Path 110" d="M41.723,37.957a7.3,7.3,0,0,0-9.854-4.589l-7.158-7.158,9.5-9.433,2.251-.064a.8.8,0,0,0,.66-.39l3.221-5.416a.8.8,0,0,0-.119-.97L37.444,7.153a.8.8,0,0,0-.97-.119l-5.416,3.221a.8.8,0,0,0-.39.66L30.6,13.158l-9.481,9.465-6.506-6.506A7.278,7.278,0,0,0,3.411,8.823a.8.8,0,0,0,.056,1.352l3.611,2.012c.8.453.954,1.805.31,2.951s-1.877,1.734-2.68,1.288L1.359,14.613a.8.8,0,0,0-1.177.748A7.278,7.278,0,0,0,10.307,21.6l5.917,5.917-2.561,2.561-.581-.573a1.662,1.662,0,0,0-2.3,0l-.8.8A1.591,1.591,0,0,0,9.9,32.485L.492,41.878a1.591,1.591,0,0,0-.05,2.249l.05.05L3.18,46.865a1.591,1.591,0,0,0,2.249.05l.05-.05L14.9,37.456a1.591,1.591,0,0,0,2.187-.087l.8-.8a1.591,1.591,0,0,0,.05-2.249l-.05-.05-.581-.581,2.545-2.6,7.715,7.715a7.278,7.278,0,0,0,12.376,6.3.8.8,0,0,0-.358-1.288l-4.478-1.2a1.471,1.471,0,0,1-.939-.915,2.919,2.919,0,0,1-.08-1.877c.334-1.249,1.392-2.139,2.283-1.9l4.43,1.193a.747.747,0,0,0,.215,0,.8.8,0,0,0,.716-1.161ZM31.932,14.04a.8.8,0,0,0,.231-.541l.064-2.124,4.51-2.68L38.645,10.6l-2.625,4.5-2.163.08a.8.8,0,0,0-.541.231l-9.7,9.7-1.368-1.368ZM4.349,45.735,1.621,43.023l9.457-9.433,1.368,1.368,1.3,1.352Zm11.636-9.544-1.05-1.058-.406-.406-3.34-3.364.8-.8L16.757,35.4Zm.151-3.627L14.769,31.2l2.561-2.561L18.7,30ZM36.752,36.39a2.785,2.785,0,0,0-.724-.1,3.9,3.9,0,0,0-3.508,3.118,4.51,4.51,0,0,0,.151,2.9,3.03,3.03,0,0,0,2,1.829l2.959.8a5.687,5.687,0,0,1-8.447-6.188.8.8,0,0,0-.215-.74L11.038,20.069a.8.8,0,0,0-.939-.111,5.691,5.691,0,0,1-8.009-3.086L3.9,17.882a2.808,2.808,0,0,0,1.384.358,4.152,4.152,0,0,0,3.46-2.259c1.082-1.933.66-4.231-.931-5.122L5.5,9.547a5.687,5.687,0,0,1,7.452,6.641.8.8,0,0,0,.215.74L31.137,34.887a.8.8,0,0,0,.931.143,5.693,5.693,0,0,1,7.564,2.14Z" transform="translate(-0.001 -6.92)"/>
      </g>
    </g>
    <g id="Ellipse_53" data-name="Ellipse 53" transform="translate(131 5148)" fill="none" stroke="#1d1d1d" stroke-width="2">
      <circle cx="41.5" cy="41.5" r="41.5" stroke="none"/>
      <circle cx="41.5" cy="41.5" r="40.5" fill="none"/>
    </g>
  </g>
</svg>
