<svg xmlns="http://www.w3.org/2000/svg" width="83" height="83" viewBox="0 0 83 83">
  <g id="Group_207" data-name="Group 207" transform="translate(505 -4741)">
    <g id="_011-customer-support" data-name="011-customer-support" transform="translate(-487.808 4757)">
      <g id="Group_155" data-name="Group 155" transform="translate(0 0)">
        <path id="Path_126" data-name="Path 126" d="M38.155,40.191a79.2,79.2,0,0,0,.577-9.623,6.03,6.03,0,0,0,1.97-1.75c1.475-2.08,1.595-5.05.367-8.834a.916.916,0,0,0-.367-.477l-.614-.412a13.82,13.82,0,0,0-3.3-9.366C34.04,6.687,29.834,5.147,24.252,5.147s-9.8,1.576-12.537,4.582a13.82,13.82,0,0,0-3.3,9.366l-.614.412a.916.916,0,0,0-.367.477c-2.126,6.553.247,9.375,2.273,10.566a67.713,67.713,0,0,0,.522,9.668C5.246,42.171-.152,45.644,0,51.473a.916.916,0,0,0,.916.916H47.5a.916.916,0,0,0,.916-.916C48.566,45.617,43.113,42.134,38.155,40.191ZM9.738,28.27c-1.825-1.834-1.476-4.9-.689-7.452l.779-.522a.916.916,0,0,0,.4-.852,12.253,12.253,0,0,1,2.823-8.532c2.374-2.6,6.131-3.95,11.153-3.968s8.779,1.365,11.162,4a12.253,12.253,0,0,1,2.823,8.532.916.916,0,0,0,.4.852l.788.522c.916,3.052.871,5.37-.211,6.9a4.016,4.016,0,0,1-.5.577c-.321-6.956-1.952-12.17-4.9-15.534a12.4,12.4,0,0,0-4.848-3.409h-.082a15.14,15.14,0,0,0-5.26-.981,11.107,11.107,0,0,0-8.807,3.776C11.274,16.127,10.053,22.56,9.738,28.27Zm21.369,8.448.009-.037A10.384,10.384,0,0,0,32.6,34.235a10.581,10.581,0,0,0,.55-1.668L35.58,31.54a7.936,7.936,0,0,0,1.329-.238,79.654,79.654,0,0,1-.532,8.248,42.167,42.167,0,0,0-5.242-1.384v-1.3A.861.861,0,0,0,31.107,36.718ZM27.148,34.1a1.026,1.026,0,1,1-1.026-1.026h0a1.026,1.026,0,0,1,1.009,1.044c0,.006,0,.013,0,.019Zm-1.036-2.823.009-.037a2.859,2.859,0,1,0,2.832,3.079l1.97-.834c-1.613,3.785-5.554,5.233-6.7,5.581-5.022-2.749-7.625-5.5-7.524-8.175.165-4.271,7-7.331,7.781-7.7a10.576,10.576,0,0,0,4.179-3.024c2.355,4.3,3.3,8,2.85,11.071l-3.024,1.274A2.859,2.859,0,0,0,26.113,31.275Zm-14.58-1.521.037-.027c.174-5.737,1.191-12.5,4.582-16.386a9.165,9.165,0,0,1,7.4-3.153,13.748,13.748,0,0,1,3.986.623,7.332,7.332,0,0,0,.33,2.539c.394,1.521.8,3.088,0,4.582V18a.912.912,0,0,0-.046.092c0,.082-.7,1.97-4.06,3.427-1.448.623-8.679,4.023-8.88,9.3A7.64,7.64,0,0,0,17.416,36.4a.916.916,0,0,0-.119.422v1.292a42.1,42.1,0,0,0-5.334,1.411,69.766,69.766,0,0,1-.44-9.219A.917.917,0,0,0,11.532,29.753Zm23.836-.064a.917.917,0,0,0-.33.073l-1.558.66c.147-3.446-1.1-7.5-3.776-12.069a8.248,8.248,0,0,0,0-5.5c-.119-.44-.229-.916-.293-1.274a10.637,10.637,0,0,1,3.006,2.383c2.813,3.217,4.326,8.376,4.5,15.4A5.892,5.892,0,0,1,35.369,29.689ZM23.29,50.529H1.864c.724-6.882,11.914-9.76,15.414-10.5v1.6c0,2.08,2.529,3.666,6.012,3.931v4.967Zm-4.179-8.889h0V37.974a30.139,30.139,0,0,0,4.582,2.905.917.917,0,0,0,.431.11h.2A13.893,13.893,0,0,0,29.311,38.5v3.162c0,.871-1.989,2.126-5.1,2.126S19.111,42.482,19.111,41.639Zm6.012,8.889V45.571c3.482-.238,6.012-1.833,6.012-3.931v-1.6c3.528.733,14.663,3.6,15.414,10.5Z" transform="translate(0 -5.147)"/>
      </g>
    </g>
    <g id="Ellipse_62" data-name="Ellipse 62" transform="translate(-505 4741)" fill="none" stroke="#1d1d1d" stroke-width="2">
      <circle cx="41.5" cy="41.5" r="41.5" stroke="none"/>
      <circle cx="41.5" cy="41.5" r="40.5" fill="none"/>
    </g>
  </g>
</svg>
