<svg xmlns="http://www.w3.org/2000/svg" width="83" height="83" viewBox="0 0 83 83">
  <g id="Group_208" data-name="Group 208" transform="translate(603 -4741)">
    <g id="_014-phone-call" data-name="014-phone-call" transform="translate(-583.971 4760)">
      <g id="Group_171" data-name="Group 171" transform="translate(0 0)">
        <g id="Group_170" data-name="Group 170">
          <path id="Path_134" data-name="Path 134" d="M37.526,2.658A22.809,22.809,0,0,0,10.491,38.71l-.916,6.763a.916.916,0,0,0,1.411.916l5.169-3.427a22.81,22.81,0,1,0,21.371-40.3Zm4.281,34.964a21.049,21.049,0,0,1-25.286,3.416.916.916,0,0,0-.916,0l-3.932,2.6.733-5.2a.916.916,0,0,0-.266-.779,20.977,20.977,0,1,1,29.666-.044Z" transform="translate(-4.036 0)"/>
        </g>
      </g>
      <g id="Group_173" data-name="Group 173" transform="translate(14.019 5.751)">
        <g id="Group_172" data-name="Group 172">
          <path id="Path_135" data-name="Path 135" d="M141.272,71.937a.917.917,0,0,0-.852,0l-1.833.916c-.376,0-2.374-.22-4.527-4.436-1.833-4.426-.852-6.1-.632-6.415l1.906-.843a.916.916,0,0,0,.532-.669c1.237-6.415-.495-8.862-2.163-9.806a4.583,4.583,0,0,0-2.172-.477,4,4,0,0,0-3.922,2.575c-1.173,2.96-2.539,9.228,1.558,17.953s9.907,11.538,12.949,12.482a4.227,4.227,0,0,0,1.256.192,4.518,4.518,0,0,0,4.17-3.666C147.861,77.894,147.027,75,141.272,71.937Zm4.463,7.542a2.694,2.694,0,0,1-2.364,2.108,2.4,2.4,0,0,1-.706-.11c-2.749-.861-7.973-3.51-11.914-11.529s-2.575-13.8-1.5-16.5a2.218,2.218,0,0,1,2.282-1.411,2.75,2.75,0,0,1,1.265.275c1.558.916,2.025,3.5,1.347,7.4l-1.7.724a.916.916,0,0,0-.211.128c-.266.22-2.493,2.291.092,8.651,2.539,4.967,5.178,5.5,6.2,5.5a2.181,2.181,0,0,0,.477,0,.915.915,0,0,0,.211-.082l1.585-.816C144.287,75.7,146.028,77.72,145.735,79.479Z" transform="translate(-126.41 -50.205)"/>
        </g>
      </g>
    </g>
    <g id="Ellipse_60" data-name="Ellipse 60" transform="translate(-603 4741)" fill="none" stroke="#1d1d1d" stroke-width="2">
      <circle cx="41.5" cy="41.5" r="41.5" stroke="none"/>
      <circle cx="41.5" cy="41.5" r="40.5" fill="none"/>
    </g>
  </g>
</svg>
