<svg xmlns="http://www.w3.org/2000/svg" width="83" height="83" viewBox="0 0 83 83">
  <g id="Group_199" data-name="Group 199" transform="translate(-131 -5448)">
    <g id="_012-chat-1" data-name="012-chat-1" transform="translate(148.457 5470)">
      <g id="Group_157" data-name="Group 157" transform="translate(0 0)">
        <g id="Group_156" data-name="Group 156">
          <path id="Path_127" data-name="Path 127" d="M43.4,44.554H31.485a6.889,6.889,0,0,0,.136-1.353V32.6c0-4.1-2.86-5.565-5.583-5.565H5.556C2.833,27.032,0,28.494,0,32.588v10.6c0,3.731,2.37,5.275,4.821,5.52v4.83a.908.908,0,0,0,1.607.581l4.539-5.375h9.242a7.006,7.006,0,0,0-.054.826v9.414c0,3.713,2.606,5.039,5.039,5.039h1.752l4.176,4.984a.908.908,0,0,0,1.607-.581v-4.4H43.4c3.713,0,5.039-2.606,5.039-5.039V49.574C48.452,45.861,45.847,44.554,43.4,44.554Zm-22.66,2.379-.036.018H10.5a.908.908,0,0,0-.7.327L6.636,51.063V47.84a.908.908,0,0,0-.908-.908H5.556c-1.4,0-3.74-.49-3.74-3.74V32.6c0-3.259,2.342-3.74,3.74-3.74H26.037a3.4,3.4,0,0,1,3.74,3.749V43.192a4.791,4.791,0,0,1-.163,1.362H25.2A4.821,4.821,0,0,0,20.745,46.932Zm23.3,15.279a2.927,2.927,0,0,1-.634,0H31.8a.908.908,0,0,0-.908.908v2.814l-2.842-3.4a.908.908,0,0,0-.7-.327H25.2a2.923,2.923,0,0,1-3.223-3.223V49.574a2.923,2.923,0,0,1,3.223-3.2H43.4a2.923,2.923,0,0,1,3.223,3.223l.009,9.4A2.923,2.923,0,0,1,44.047,62.211Z" transform="translate(0 -27.032)"/>
        </g>
      </g>
      <g id="Group_159" data-name="Group 159" transform="translate(12.42 5.356)">
        <g id="Group_158" data-name="Group 158">
          <path id="Path_128" data-name="Path 128" d="M115.868,75.624a2.815,2.815,0,0,0-1.2-1.035,3.958,3.958,0,0,0-1.734-.363,3.8,3.8,0,0,0-1.816.436,3.177,3.177,0,0,0-1.207,1.1,2.451,2.451,0,0,0-.472,1.353.817.817,0,0,0,.263.581.908.908,0,0,0,.645.272q.645,0,.908-.772a3.013,3.013,0,0,1,.6-1.108,1.443,1.443,0,0,1,1.1-.381,1.48,1.48,0,0,1,1.044.372,1.2,1.2,0,0,1,.409.908,1.035,1.035,0,0,1-.136.517,1.914,1.914,0,0,1-.327.436q-.191.191-.626.572a10.65,10.65,0,0,0-.79.754,2.406,2.406,0,0,0-.645,1.725.908.908,0,0,0,.245.69.826.826,0,0,0,.59.227.754.754,0,0,0,.807-.7s0-.008,0-.012c.045-.218.091-.381.109-.463a1.414,1.414,0,0,1,.109-.263,1.5,1.5,0,0,1,.209-.291,4.757,4.757,0,0,1,.372-.372q.835-.744,1.162-1.062a3.089,3.089,0,0,0,.554-.754,2.088,2.088,0,0,0,.236-1.008A2.425,2.425,0,0,0,115.868,75.624Z" transform="translate(-109.44 -74.225)"/>
        </g>
      </g>
      <g id="Group_161" data-name="Group 161" transform="translate(14.705 13.654)">
        <g id="Group_160" data-name="Group 160">
          <path id="Path_129" data-name="Path 129" d="M131.631,148.366a1,1,0,0,0-.989-1.008h-.018l-.009-.009a1.008,1.008,0,0,0-.735.291.971.971,0,0,0-.3.717.908.908,0,0,0,.309.754,1.071,1.071,0,0,0,.726.272,1.035,1.035,0,0,0,.708-.272A.907.907,0,0,0,131.631,148.366Z" transform="translate(-129.577 -147.349)"/>
        </g>
      </g>
      <g id="Group_163" data-name="Group 163" transform="translate(33.707 21.477)">
        <g id="Group_162" data-name="Group 162">
          <path id="Path_130" data-name="Path 130" d="M299.338,218.061a3.077,3.077,0,0,0-.227-1.316.908.908,0,0,0-.844-.454,1.144,1.144,0,0,0-.908.354,1.4,1.4,0,0,0-.336.99q0,.463.073,1.534l.245,3.631a3.468,3.468,0,0,0,.227,1.062.581.581,0,0,0,.572.345.6.6,0,0,0,.581-.363,2.959,2.959,0,0,0,.227-1.035l.39-3.722A10.055,10.055,0,0,0,299.338,218.061Z" transform="translate(-297.021 -216.288)"/>
        </g>
      </g>
      <g id="Group_165" data-name="Group 165" transform="translate(33.743 30.776)">
        <g id="Group_164" data-name="Group 164">
          <path id="Path_131" data-name="Path 131" d="M299.317,298.556a1.162,1.162,0,0,0-1.97.8v.018a1.062,1.062,0,0,0,.345.844,1.2,1.2,0,0,0,.817.3,1.171,1.171,0,0,0,.8-.309,1.071,1.071,0,0,0,.345-.844A1.089,1.089,0,0,0,299.317,298.556Z" transform="translate(-297.345 -298.229)"/>
        </g>
      </g>
    </g>
    <g id="Ellipse_55" data-name="Ellipse 55" transform="translate(131 5448)" fill="none" stroke="#1d1d1d" stroke-width="2">
      <circle cx="41.5" cy="41.5" r="41.5" stroke="none"/>
      <circle cx="41.5" cy="41.5" r="40.5" fill="none"/>
    </g>
  </g>
</svg>
