<svg xmlns="http://www.w3.org/2000/svg" width="83" height="83" viewBox="0 0 83 83">
  <g id="Group_206" data-name="Group 206" transform="translate(406 -4741)">
    <g id="_013-chat" data-name="013-chat" transform="translate(-389.146 4757)">
      <g id="Group_167" data-name="Group 167" transform="translate(10.303 10.323)">
        <g id="Group_166" data-name="Group 166">
          <path id="Path_132" data-name="Path 132" d="M106.307,90.283l-.046-.009a14.187,14.187,0,0,0-13.747,22.169l-1.127,3.812a.916.916,0,0,0,1.265,1.091l3.263-1.457A14.223,14.223,0,0,0,102.1,118.4a14.175,14.175,0,0,0,16.12-11.959A14.214,14.214,0,0,0,106.307,90.283Zm10.1,15.863a12.381,12.381,0,0,1-19.859,7.927.916.916,0,0,0-.916-.11l-1.833.916.678-2.291a.916.916,0,0,0-.147-.806,12.33,12.33,0,0,1,11.637-19.7l.029,0A12.381,12.381,0,0,1,116.406,106.146Z" transform="translate(-89.942 -90.112)"/>
        </g>
      </g>
      <g id="Group_169" data-name="Group 169">
        <g id="Group_168" data-name="Group 168">
          <path id="Path_133" data-name="Path 133" d="M48.131,18.164H43.054a19.58,19.58,0,0,0-.916-2.236l3.592-3.592a.916.916,0,0,0,0-1.292L38.014,3.336a.916.916,0,0,0-1.292,0L33.129,6.928a19.581,19.581,0,0,0-2.236-.916V.916A.916.916,0,0,0,29.977,0H19.08a.916.916,0,0,0-.916.916V5.993a19.58,19.58,0,0,0-2.236.916L12.335,3.336a.916.916,0,0,0-1.292,0l-7.707,7.7a.916.916,0,0,0,0,1.292l3.592,3.592a19.58,19.58,0,0,0-.916,2.236H.916A.916.916,0,0,0,0,19.071v10.9a.916.916,0,0,0,.916.916H5.993A19.58,19.58,0,0,0,6.91,33.12L3.336,36.712a.916.916,0,0,0,0,1.292l7.707,7.707a.916.916,0,0,0,1.292,0l3.592-3.592a19.58,19.58,0,0,0,2.236.916v5.077a.916.916,0,0,0,.916.916H29.967a.916.916,0,0,0,.916-.916V43.054a19.58,19.58,0,0,0,2.236-.916l3.592,3.592a.916.916,0,0,0,1.292,0l7.707-7.707a.916.916,0,0,0,0-1.292l-3.592-3.592a19.579,19.579,0,0,0,.916-2.236h5.077a.916.916,0,0,0,.916-.916V19.08A.916.916,0,0,0,48.131,18.164Zm-.916,10.9h-4.83a.916.916,0,0,0-.916.651,17.678,17.678,0,0,1-1.311,3.171.916.916,0,0,0,.156,1.081l3.455,3.391-6.415,6.415L33.936,40.36a.916.916,0,0,0-1.081-.156,17.677,17.677,0,0,1-3.171,1.311.916.916,0,0,0-.651.916v4.82H20V42.385a.916.916,0,0,0-.651-.916,17.678,17.678,0,0,1-3.171-1.31.916.916,0,0,0-1.081.156l-3.4,3.455L5.279,37.354l3.409-3.418a.917.917,0,0,0,.156-1.081,17.677,17.677,0,0,1-1.311-3.171.916.916,0,0,0-.916-.651H1.833V20h4.82a.916.916,0,0,0,.916-.651A17.677,17.677,0,0,1,8.88,16.175a.916.916,0,0,0-.156-1.081l-3.446-3.4,6.415-6.415,3.418,3.409a.917.917,0,0,0,1.081.156,17.677,17.677,0,0,1,3.171-1.311.916.916,0,0,0,.651-.916V1.833h9.064v4.82a.916.916,0,0,0,.651.916A17.677,17.677,0,0,1,32.9,8.88a.916.916,0,0,0,1.081-.156l3.372-3.446,6.415,6.415L40.36,15.112a.917.917,0,0,0-.156,1.081,17.677,17.677,0,0,1,1.311,3.171.916.916,0,0,0,.916.651h4.82Z"/>
        </g>
      </g>
    </g>
    <g id="Ellipse_63" data-name="Ellipse 63" transform="translate(-406 4741)" fill="none" stroke="#1d1d1d" stroke-width="2">
      <circle cx="41.5" cy="41.5" r="41.5" stroke="none"/>
      <circle cx="41.5" cy="41.5" r="40.5" fill="none"/>
    </g>
  </g>
</svg>
