<svg xmlns="http://www.w3.org/2000/svg" xmlns:xlink="http://www.w3.org/1999/xlink" width="38.34" height="31.119" viewBox="0 0 38.34 31.119">
  <defs>
    <clipPath id="clip-path">
      <path id="path" d="M69.9-9.578a8.09,8.09,0,0,0,2.123-1.86,7.591,7.591,0,0,0,1.335-2.517,15.288,15.288,0,0,1-4.99,1.926,7.736,7.736,0,0,0-2.582-1.838,7.721,7.721,0,0,0-3.151-.657,7.573,7.573,0,0,0-3.917,1.072,7.942,7.942,0,0,0-2.867,2.867A7.657,7.657,0,0,0,54.8-6.646a9.128,9.128,0,0,0,.175,1.794A22.19,22.19,0,0,1,45.92-7.3a22.413,22.413,0,0,1-7.134-5.777,7.811,7.811,0,0,0-1.05,3.939A7.7,7.7,0,0,0,38.677-5.4a7.935,7.935,0,0,0,2.56,2.823,7.387,7.387,0,0,1-3.589-1.007v.131A8.214,8.214,0,0,0,38.5.029a7.8,7.8,0,0,0,2.254,2.757,7.6,7.6,0,0,0,3.2,1.466,8.116,8.116,0,0,1-2.057.263,7.822,7.822,0,0,1-1.444-.131,7.584,7.584,0,0,0,2.757,3.873,7.864,7.864,0,0,0,4.552,1.6,16.319,16.319,0,0,1-4.552,2.451A15.616,15.616,0,0,1,38,13.181q-.963,0-1.882-.088a21.756,21.756,0,0,0,5.69,2.582,22.412,22.412,0,0,0,6.39.919,22.849,22.849,0,0,0,9.585-2.013,21.269,21.269,0,0,0,7-5.252,23.477,23.477,0,0,0,4.289-7.178,22.75,22.75,0,0,0,1.444-7.878V-6.733a16.507,16.507,0,0,0,3.939-4.114A15.971,15.971,0,0,1,69.9-9.578Z" transform="translate(-36.116 14.524)" fill="rgba(0,0,0,0)" clip-rule="evenodd"/>
    </clipPath>
    <clipPath id="clip-path-2">
      <path id="path-2" data-name="path" d="M-1133.346,5689.547h3501.4V-3654.815h-3501.4Z" transform="translate(1133.346 3654.815)" fill="rgba(0,0,0,0)"/>
    </clipPath>
  </defs>
  <g id="group" clip-path="url(#clip-path)">
    <g id="group-2" data-name="group" transform="translate(-2843.58 -8851.473)" clip-path="url(#clip-path-2)">
      <path id="path-3" data-name="path" d="M31.116-19.524H93.772V35.91H31.116Z" transform="translate(2800.307 8858.839)" fill="#95989a"/>
    </g>
  </g>
</svg>
